<?xml version="1.0" standalone="no"?>
<!DOCTYPE svg PUBLIC "-//W3C//DTD SVG 20010904//EN"
 "http://www.w3.org/TR/2001/REC-SVG-20010904/DTD/svg10.dtd">
<svg version="1.0" xmlns="http://www.w3.org/2000/svg"
 width="512.000000pt" height="512.000000pt" viewBox="0 0 512.000000 512.000000"
 preserveAspectRatio="xMidYMid meet">

<g transform="translate(0.000000,512.000000) scale(0.100000,-0.100000)"
fill="#000000" stroke="none">
<path d="M2255 5114 c-454 -19 -1064 -89 -1294 -150 -386 -101 -686 -392 -797
-774 -14 -47 -36 -152 -49 -235 -117 -730 -143 -1497 -74 -2210 31 -322 87
-691 125 -823 104 -360 398 -652 760 -757 82 -24 266 -56 509 -89 583 -80
1355 -94 1940 -36 360 36 720 92 845 132 404 129 680 442 764 868 20 101 62
393 81 565 74 671 69 1371 -16 2040 -63 498 -105 654 -233 850 -173 266 -438
436 -770 495 -267 48 -615 89 -926 110 -165 11 -714 20 -865 14z m625 -694
c283 -36 514 -116 713 -246 104 -69 291 -259 366 -374 76 -115 155 -276 211
-430 35 -95 41 -124 38 -168 -12 -147 -190 -213 -293 -108 -22 22 -42 63 -69
141 -127 371 -330 613 -615 735 -338 145 -872 158 -1222 30 -519 -189 -768
-717 -746 -1585 7 -311 49 -516 147 -721 58 -123 111 -203 193 -291 211 -227
515 -348 927 -369 391 -20 729 92 950 316 142 143 200 268 208 450 7 163 -23
277 -102 393 -43 62 -155 163 -166 149 -3 -4 -14 -41 -24 -82 -84 -345 -304
-586 -606 -661 -74 -19 -103 -21 -245 -16 -231 8 -369 51 -502 155 -168 133
-244 416 -173 646 53 171 205 327 388 399 173 66 483 91 760 60 l53 -5 -6 28
c-4 16 -22 62 -41 102 -79 171 -230 262 -432 262 -157 0 -293 -60 -413 -182
-105 -106 -170 -121 -260 -63 -41 26 -79 95 -79 141 0 52 47 129 123 201 133
126 271 199 445 235 79 16 120 19 222 15 401 -17 677 -247 779 -650 10 -40 22
-99 26 -132 l6 -60 84 -43 c264 -136 437 -362 497 -652 29 -136 21 -348 -16
-473 -73 -247 -220 -448 -440 -604 -355 -252 -882 -342 -1396 -237 -738 150
-1175 673 -1251 1498 -15 160 -7 544 15 712 63 483 205 819 454 1076 234 241
548 379 952 418 113 10 421 5 540 -10z"/>
<path d="M2607 2499 c-236 -19 -364 -92 -403 -227 -17 -59 -13 -142 11 -197
42 -99 185 -151 397 -143 103 3 119 7 180 36 86 42 158 120 210 227 37 77 78
215 78 261 0 27 -13 31 -161 44 -127 11 -169 11 -312 -1z"/>
</g>
</svg>
